<svg width="32" height="32" viewBox="0 0 32 32" xmlns="http://www.w3.org/2000/svg"><title>Corners</title><path d="M7.283 12.905l-2.465-2.222C3.233 12.587 2.176 14.65 2 16.873h3.522c.176-1.43.88-2.698 1.76-3.968zm-1.76 7.143H2c.352 2.222 1.233 4.285 2.818 6.19l2.465-2.222c-.88-1.27-1.585-2.54-1.76-3.968zm1.76 8.412c2.113 1.43 4.403 2.223 6.868 2.54v-3.175c-1.584-.158-2.993-.793-4.402-1.587L7.283 28.46zm10.39-22.54V1L9.748 8.143l7.925 7.143v-6.19c4.93.793 8.805 4.602 8.805 9.364 0 4.762-3.874 8.572-8.805 9.365V31C24.54 30.206 30 24.81 30 18.46c0-6.35-5.46-11.746-12.327-12.54z" fill="#000"/></svg>