<?xml version="1.0" encoding="UTF-8"?>
<svg width="926px" height="1824px" viewBox="0 0 926 1824" version="1.1" xmlns="http://www.w3.org/2000/svg" xmlns:xlink="http://www.w3.org/1999/xlink">
    <!-- Generator: Sketch 51.2 (57519) - http://www.bohemiancoding.com/sketch -->
    <title>Shape</title>
    <desc>Created with Sketch.</desc>
    <defs></defs>
    <g id="Page-1" stroke="none" stroke-width="1" fill="none" fill-rule="evenodd">
        <g id="iphone_12_base" fill="#EAEAEA">
            <path d="M181,1823 C181,1823 6,1831.8 6,1648 C6,1464.2 6,737 6,737 C6,737 1.3,740.1 0,730 C0,730 0,505.1 0,499 C0,492.9 2.9,490.1 6,491 L6,198 C6,198 -12.4,1 181,1 C439.7,1 735,1 735,1 C735,1 918,-4.8 918,164 C918,358.5 918,441 918,441 C918,441 926,435.8 926,452 C926,468.2 926,578.1 926,589 C926,599.9 924.2,600.1 920,599 L920,629 C920,629 926,626 926,637 C926,648 926,772.5 926,780 C926,787.5 922.7,788.2 920,789 L920,1606 C920,1606 943.6,1823 746,1823 C548.4,1823 181,1823 181,1823 Z M320.5,496 L180.5,496 C102.4,496 39,432.6 39,354.5 L39,172.5 C39,94.4 102.4,31 180.5,31 L320.4,31 C398.6,31 462,94.4 462,172.5 L462,354.5 C462,432.6 398.6,496 320.5,496 Z" id="Shape"></path>
        </g>
    </g>
</svg>