<svg width="32" height="32" viewBox="0 0 32 32" xmlns="http://www.w3.org/2000/svg"><title>48</title><g fill="#fff"><path d="M27.145 4.578h-5.822V3.39c0-1.31-1.043-2.372-2.33-2.372h-5.82c-1.287 0-2.33 1.063-2.33 2.373V4.58H5.02v1.186h1.2L7.387 28.31c0 1.31 1.043 2.372 2.33 2.372h12.808c1.286 0 2.33-1.063 2.33-2.373l1.144-22.546h1.147V4.578zM2.008 1.39c0-.653.523-1.185 1.164-1.185h5.822c.643 0 1.165.532 1.165 1.186V3.58H7.007V2.39zM18.69 27.248l-.002.03v.032c0 .652-.522 1.185-1.164 1.185H4.714c-.64 0-1.163-.533-1.163-1.186v-.064L2.386 4.764h17.446L18.69 27.247z" id="Shape"/><path d="M15.5 8.137h1.165v18.985H15.5z"/><path d="M13.198 27.084l-1.19-18.948-1.164.076 1.192 18.947 1.162-.076zM21.33 8.175L20.17 8.1l-1.176 18.985 1.162.074L21.33 8.174z"/></g></svg>