<?xml version="1.0" encoding="UTF-8"?>
<svg width="781px" height="586px" viewBox="0 0 781 586" version="1.1" xmlns="http://www.w3.org/2000/svg" xmlns:xlink="http://www.w3.org/1999/xlink">
    <!-- Generator: Sketch 42 (36781) - http://www.bohemiancoding.com/sketch -->
    <title>Combined Shape</title>
    <desc>Created with Sketch.</desc>
    <defs></defs>
    <g id="Page-1" stroke="none" stroke-width="1" fill="none" fill-rule="evenodd">
        <g id="group" transform="translate(0.000000, -1.000000)" fill-rule="nonzero" fill="#000000">
            <g id="Page-1">
                <g id="Group" transform="translate(390.794000, 293.706000) scale(-1, 1) rotate(-180.000000) translate(-390.794000, -293.706000) translate(0.294000, 0.706000)">
                    <path d="M181.097858,164.617689 C175.539141,170.307196 170.05192,175.958817 164.6694,181.545 C100.6362,248.4888 67.6494,304.437 67.6494,374.6148 C67.6494,444.7926 128.1252,509.796 198.9498,509.796 C265.8936,509.796 300.174,478.7496 337.365,438.3246 C374.556,478.7496 408.8364,509.796 475.7802,509.796 C517.501658,509.796 555.631907,487.238718 579.923923,454.354473 L687.372,532.434 L634.158,544.194 C638.274,544.488 642.684,545.37 646.8,546.546 L780.57,585.06 L702.66,469.518 C700.308,465.99 698.25,462.168 696.486,458.346 L701.778,512.442 L592.85335,433.289488 C601.921901,415.166352 607.0806,395.111269 607.0806,374.6148 C607.0806,304.437 574.0938,248.4888 510.0606,181.545 C450.2316,119.4522 377.4666,49.2744 337.365,8.8494 C304.607899,41.8706707 250.056199,94.7444481 198.563561,146.847481 L108.486,81.438 L114.954,43.218 L102.9,34.692 L96.726,72.912 L84.672,64.092 L91.14,25.872 L79.086,17.346 L72.912,55.566 L60.858,47.04 L67.326,8.526 L55.566,0 L49.098,38.22 L42.042,33.222 L27.636,53.214 L34.692,58.212 L1.13686838e-13,76.146 L12.054,84.672 L46.452,67.032 L58.212,75.558 L23.814,93.492 L35.868,102.018 L70.266,84.084 L82.026,92.904 L47.628,110.838 L59.682,119.364 L94.08,101.43 L181.097858,164.617689 Z" id="Combined-Shape"></path>
                </g>
            </g>
        </g>
    </g>
</svg>