<svg width="32" height="32" viewBox="0 0 32 32" xmlns="http://www.w3.org/2000/svg"><title>48</title><path d="M20.765 5.176H25v1.06H7v-1.06h4.235V4.118C11.235 2.94 12.182 2 13.35 2h5.3c1.166 0 2.115.948 2.115 2.118v1.058zM-7 3.294V25.41c0 1.755 1.412 3.178 3.177 3.178h11.646c1.755 0 3.177-1.422 3.177-3.178V5.294H0zm1.06 1.06V25.42c0 1.164.945 2.107 2.108 2.107h11.664c1.165 0 2.11-.952 2.11-2.108V6.352H1.058zM4.234 8.47v16.942h1.06V8.472h-1.06zm4.236 0v16.942h1.06V8.472H8.47zm4.236 0v16.942h1.06V8.472h-1.06zm-6.35-7.41c-.586 0-1.062.47-1.062 1.058v1.058h7.412V2.118c0-.585-.464-1.06-1.062-1.06H6.356z" fill="#fff"/></svg>